<svg xmlns="http://www.w3.org/2000/svg" xmlns:xlink="http://www.w3.org/1999/xlink" contentStyleType="text/css" height="816px" preserveAspectRatio="none" style="width:1434px;height:816px;background:#FFFFFF;" version="1.1" viewBox="0 0 1434 816" width="1434px" zoomAndPan="magnify"><defs/><g><text fill="#000000" font-family="sans-serif" font-size="14" font-weight="bold" lengthAdjust="spacing" textLength="286" x="567" y="22.9951">Proceso 5 - Postventa y Fidelizaci&#243;n</text><!--class Persona--><g id="elem_Persona"><rect codeLine="4" fill="#F1F1F1" height="96.8906" id="Persona" rx="2.5" ry="2.5" style="stroke:#181818;stroke-width:0.5;" width="123" x="523.5" y="52.4469"/><ellipse cx="553.8" cy="68.4469" fill="#A9DCDF" rx="11" ry="11" style="stroke:#181818;stroke-width:1.0;"/><path d="M553.9094,63.7906 L552.7531,68.8687 L555.0813,68.8687 L553.9094,63.7906 Z M552.425,61.5562 L555.4094,61.5562 L558.7688,73.9469 L556.3156,73.9469 L555.55,70.8844 L552.2688,70.8844 L551.5188,73.9469 L549.0813,73.9469 L552.425,61.5562 Z " fill="#000000"/><text fill="#000000" font-family="sans-serif" font-size="14" font-style="italic" lengthAdjust="spacing" textLength="57" x="571.2" y="73.2936">Persona</text><line style="stroke:#181818;stroke-width:0.5;" x1="524.5" x2="645.5" y1="84.4469" y2="84.4469"/><text fill="#000000" font-family="sans-serif" font-size="14" lengthAdjust="spacing" textLength="108" x="529.5" y="101.442">-nombre: String</text><text fill="#000000" font-family="sans-serif" font-size="14" lengthAdjust="spacing" textLength="99" x="529.5" y="117.7389">-correo: String</text><text fill="#000000" font-family="sans-serif" font-size="14" lengthAdjust="spacing" textLength="111" x="529.5" y="134.0357">-telefono: String</text><line style="stroke:#181818;stroke-width:0.5;" x1="524.5" x2="645.5" y1="141.3375" y2="141.3375"/></g><!--class Cliente--><g id="elem_Cliente"><rect codeLine="10" fill="#F1F1F1" height="96.8906" id="Cliente" rx="2.5" ry="2.5" style="stroke:#181818;stroke-width:0.5;" width="189" x="707.5" y="218.4869"/><ellipse cx="773.75" cy="234.4869" fill="#ADD1B2" rx="11" ry="11" style="stroke:#181818;stroke-width:1.0;"/><path d="M776.7188,240.1275 Q776.1406,240.4244 775.5,240.565 Q774.8594,240.7212 774.1563,240.7212 Q771.6563,240.7212 770.3281,239.0806 Q769.0156,237.4244 769.0156,234.2994 Q769.0156,231.1744 770.3281,229.5181 Q771.6563,227.8619 774.1563,227.8619 Q774.8594,227.8619 775.5,228.0181 Q776.1563,228.1744 776.7188,228.4712 L776.7188,231.19 Q776.0938,230.6119 775.5,230.3462 Q774.9063,230.065 774.2813,230.065 Q772.9375,230.065 772.25,231.1431 Q771.5625,232.2056 771.5625,234.2994 Q771.5625,236.3931 772.25,237.4712 Q772.9375,238.5337 774.2813,238.5337 Q774.9063,238.5337 775.5,238.2681 Q776.0938,237.9869 776.7188,237.4087 L776.7188,240.1275 Z " fill="#000000"/><text fill="#000000" font-family="sans-serif" font-size="14" lengthAdjust="spacing" textLength="48" x="794.25" y="239.3336">Cliente</text><line style="stroke:#181818;stroke-width:0.5;" x1="708.5" x2="895.5" y1="250.4869" y2="250.4869"/><text fill="#000000" font-family="sans-serif" font-size="14" lengthAdjust="spacing" textLength="43" x="713.5" y="267.482">-id: int</text><text fill="#000000" font-family="sans-serif" font-size="14" lengthAdjust="spacing" textLength="158" x="713.5" y="283.7789">-estado: EstadoCliente</text><line style="stroke:#181818;stroke-width:0.5;" x1="708.5" x2="895.5" y1="291.0806" y2="291.0806"/><text fill="#000000" font-family="sans-serif" font-size="14" lengthAdjust="spacing" textLength="177" x="713.5" y="308.0757">+consultarHistorial(): void</text></g><!--class AsesorComercial--><g id="elem_AsesorComercial"><rect codeLine="17" fill="#F1F1F1" height="80.5938" id="AsesorComercial" rx="2.5" ry="2.5" style="stroke:#181818;stroke-width:0.5;" width="167" x="395.5" y="226.6269"/><ellipse cx="419.05" cy="242.6269" fill="#ADD1B2" rx="11" ry="11" style="stroke:#181818;stroke-width:1.0;"/><path d="M422.0188,248.2675 Q421.4406,248.5644 420.8,248.705 Q420.1594,248.8612 419.4563,248.8612 Q416.9563,248.8612 415.6281,247.2206 Q414.3156,245.5644 414.3156,242.4394 Q414.3156,239.3144 415.6281,237.6581 Q416.9563,236.0019 419.4563,236.0019 Q420.1594,236.0019 420.8,236.1581 Q421.4563,236.3144 422.0188,236.6112 L422.0188,239.33 Q421.3938,238.7519 420.8,238.4862 Q420.2063,238.205 419.5813,238.205 Q418.2375,238.205 417.55,239.2831 Q416.8625,240.3456 416.8625,242.4394 Q416.8625,244.5331 417.55,245.6112 Q418.2375,246.6737 419.5813,246.6737 Q420.2063,246.6737 420.8,246.4081 Q421.3938,246.1269 422.0188,245.5487 L422.0188,248.2675 Z " fill="#000000"/><text fill="#000000" font-family="sans-serif" font-size="14" lengthAdjust="spacing" textLength="116" x="434.95" y="247.4736">AsesorComercial</text><line style="stroke:#181818;stroke-width:0.5;" x1="396.5" x2="561.5" y1="258.6269" y2="258.6269"/><text fill="#000000" font-family="sans-serif" font-size="14" lengthAdjust="spacing" textLength="43" x="401.5" y="275.622">-id: int</text><line style="stroke:#181818;stroke-width:0.5;" x1="396.5" x2="561.5" y1="282.9237" y2="282.9237"/><text fill="#000000" font-family="sans-serif" font-size="14" lengthAdjust="spacing" textLength="155" x="401.5" y="299.9189">+atenderTicket(): void</text></g><!--class Producto--><g id="elem_Producto"><rect codeLine="23" fill="#F1F1F1" height="96.8906" id="Producto" rx="2.5" ry="2.5" style="stroke:#181818;stroke-width:0.5;" width="118" x="8" y="433.1169"/><ellipse cx="33.35" cy="449.1169" fill="#ADD1B2" rx="11" ry="11" style="stroke:#181818;stroke-width:1.0;"/><path d="M36.3188,454.7575 Q35.7406,455.0544 35.1,455.195 Q34.4594,455.3513 33.7563,455.3513 Q31.2563,455.3513 29.9281,453.7106 Q28.6156,452.0544 28.6156,448.9294 Q28.6156,445.8044 29.9281,444.1481 Q31.2563,442.4919 33.7563,442.4919 Q34.4594,442.4919 35.1,442.6481 Q35.7563,442.8044 36.3188,443.1013 L36.3188,445.82 Q35.6938,445.2419 35.1,444.9763 Q34.5063,444.695 33.8813,444.695 Q32.5375,444.695 31.85,445.7731 Q31.1625,446.8356 31.1625,448.9294 Q31.1625,451.0231 31.85,452.1013 Q32.5375,453.1638 33.8813,453.1638 Q34.5063,453.1638 35.1,452.8981 Q35.6938,452.6169 36.3188,452.0388 L36.3188,454.7575 Z " fill="#000000"/><text fill="#000000" font-family="sans-serif" font-size="14" lengthAdjust="spacing" textLength="63" x="49.65" y="453.9636">Producto</text><line style="stroke:#181818;stroke-width:0.5;" x1="9" x2="125" y1="465.1169" y2="465.1169"/><text fill="#000000" font-family="sans-serif" font-size="14" lengthAdjust="spacing" textLength="43" x="14" y="482.112">-id: int</text><text fill="#000000" font-family="sans-serif" font-size="14" lengthAdjust="spacing" textLength="106" x="14" y="498.4089">-modelo: String</text><text fill="#000000" font-family="sans-serif" font-size="14" lengthAdjust="spacing" textLength="96" x="14" y="514.7057">-marca: String</text><line style="stroke:#181818;stroke-width:0.5;" x1="9" x2="125" y1="522.0075" y2="522.0075"/></g><!--class Entrega--><g id="elem_Entrega"><rect codeLine="29" fill="#F1F1F1" height="96.8906" id="Entrega" rx="2.5" ry="2.5" style="stroke:#181818;stroke-width:0.5;" width="100" x="1327" y="433.1169"/><ellipse cx="1348.3" cy="449.1169" fill="#ADD1B2" rx="11" ry="11" style="stroke:#181818;stroke-width:1.0;"/><path d="M1351.2688,454.7575 Q1350.6906,455.0544 1350.05,455.195 Q1349.4094,455.3513 1348.7063,455.3513 Q1346.2063,455.3513 1344.8781,453.7106 Q1343.5656,452.0544 1343.5656,448.9294 Q1343.5656,445.8044 1344.8781,444.1481 Q1346.2063,442.4919 1348.7063,442.4919 Q1349.4094,442.4919 1350.05,442.6481 Q1350.7063,442.8044 1351.2688,443.1013 L1351.2688,445.82 Q1350.6438,445.2419 1350.05,444.9763 Q1349.4563,444.695 1348.8313,444.695 Q1347.4875,444.695 1346.8,445.7731 Q1346.1125,446.8356 1346.1125,448.9294 Q1346.1125,451.0231 1346.8,452.1013 Q1347.4875,453.1638 1348.8313,453.1638 Q1349.4563,453.1638 1350.05,452.8981 Q1350.6438,452.6169 1351.2688,452.0388 L1351.2688,454.7575 Z " fill="#000000"/><text fill="#000000" font-family="sans-serif" font-size="14" lengthAdjust="spacing" textLength="54" x="1363.7" y="453.9636">Entrega</text><line style="stroke:#181818;stroke-width:0.5;" x1="1328" x2="1426" y1="465.1169" y2="465.1169"/><text fill="#000000" font-family="sans-serif" font-size="14" lengthAdjust="spacing" textLength="43" x="1333" y="482.112">-id: int</text><text fill="#000000" font-family="sans-serif" font-size="14" lengthAdjust="spacing" textLength="85" x="1333" y="498.4089">-fecha: Date</text><text fill="#000000" font-family="sans-serif" font-size="14" lengthAdjust="spacing" textLength="88" x="1333" y="514.7057">-lugar: String</text><line style="stroke:#181818;stroke-width:0.5;" x1="1328" x2="1426" y1="522.0075" y2="522.0075"/></g><!--class Garantia--><g id="elem_Garantia"><rect codeLine="35" fill="#F1F1F1" height="162.0781" id="Garantia" rx="2.5" ry="2.5" style="stroke:#181818;stroke-width:0.5;" width="200" x="7" y="647.7469"/><ellipse cx="74.25" cy="663.7469" fill="#ADD1B2" rx="11" ry="11" style="stroke:#181818;stroke-width:1.0;"/><path d="M77.2188,669.3875 Q76.6406,669.6844 76,669.825 Q75.3594,669.9812 74.6563,669.9812 Q72.1563,669.9812 70.8281,668.3406 Q69.5156,666.6844 69.5156,663.5594 Q69.5156,660.4344 70.8281,658.7781 Q72.1563,657.1219 74.6563,657.1219 Q75.3594,657.1219 76,657.2781 Q76.6563,657.4344 77.2188,657.7312 L77.2188,660.45 Q76.5938,659.8719 76,659.6062 Q75.4063,659.325 74.7813,659.325 Q73.4375,659.325 72.75,660.4031 Q72.0625,661.4656 72.0625,663.5594 Q72.0625,665.6531 72.75,666.7312 Q73.4375,667.7937 74.7813,667.7937 Q75.4063,667.7937 76,667.5281 Q76.5938,667.2469 77.2188,666.6687 L77.2188,669.3875 Z " fill="#000000"/><text fill="#000000" font-family="sans-serif" font-size="14" lengthAdjust="spacing" textLength="57" x="94.75" y="668.5936">Garantia</text><line style="stroke:#181818;stroke-width:0.5;" x1="8" x2="206" y1="679.7469" y2="679.7469"/><text fill="#000000" font-family="sans-serif" font-size="14" lengthAdjust="spacing" textLength="43" x="13" y="696.742">-id: int</text><text fill="#000000" font-family="sans-serif" font-size="14" lengthAdjust="spacing" textLength="120" x="13" y="713.0389">-fechaInicio: Date</text><text fill="#000000" font-family="sans-serif" font-size="14" lengthAdjust="spacing" textLength="105" x="13" y="729.3357">-fechaFin: Date</text><text fill="#000000" font-family="sans-serif" font-size="14" lengthAdjust="spacing" textLength="138" x="13" y="745.6326">-condiciones: String</text><text fill="#000000" font-family="sans-serif" font-size="14" lengthAdjust="spacing" textLength="102" x="13" y="761.9295">-estado: String</text><line style="stroke:#181818;stroke-width:0.5;" x1="8" x2="206" y1="769.2312" y2="769.2312"/><text fill="#000000" font-family="sans-serif" font-size="14" lengthAdjust="spacing" textLength="116" x="13" y="786.2264">+registrar(): void</text><text fill="#000000" font-family="sans-serif" font-size="14" lengthAdjust="spacing" textLength="188" x="13" y="802.5232">+validarVigencia(): boolean</text></g><!--class TicketSoporte--><g id="elem_TicketSoporte"><rect codeLine="46" fill="#F1F1F1" height="178.375" id="TicketSoporte" rx="2.5" ry="2.5" style="stroke:#181818;stroke-width:0.5;" width="183" x="161.5" y="392.3769"/><ellipse cx="200.8" cy="408.3769" fill="#ADD1B2" rx="11" ry="11" style="stroke:#181818;stroke-width:1.0;"/><path d="M203.7688,414.0175 Q203.1906,414.3144 202.55,414.455 Q201.9094,414.6113 201.2063,414.6113 Q198.7063,414.6113 197.3781,412.9706 Q196.0656,411.3144 196.0656,408.1894 Q196.0656,405.0644 197.3781,403.4081 Q198.7063,401.7519 201.2063,401.7519 Q201.9094,401.7519 202.55,401.9081 Q203.2063,402.0644 203.7688,402.3613 L203.7688,405.08 Q203.1438,404.5019 202.55,404.2363 Q201.9563,403.955 201.3313,403.955 Q199.9875,403.955 199.3,405.0331 Q198.6125,406.0956 198.6125,408.1894 Q198.6125,410.2831 199.3,411.3613 Q199.9875,412.4238 201.3313,412.4238 Q201.9563,412.4238 202.55,412.1581 Q203.1438,411.8769 203.7688,411.2988 L203.7688,414.0175 Z " fill="#000000"/><text fill="#000000" font-family="sans-serif" font-size="14" lengthAdjust="spacing" textLength="97" x="220.2" y="413.2236">TicketSoporte</text><line style="stroke:#181818;stroke-width:0.5;" x1="162.5" x2="343.5" y1="424.3769" y2="424.3769"/><text fill="#000000" font-family="sans-serif" font-size="14" lengthAdjust="spacing" textLength="43" x="167.5" y="441.372">-id: int</text><text fill="#000000" font-family="sans-serif" font-size="14" lengthAdjust="spacing" textLength="102" x="167.5" y="457.6689">-asunto: String</text><text fill="#000000" font-family="sans-serif" font-size="14" lengthAdjust="spacing" textLength="134" x="167.5" y="473.9657">-descripcion: String</text><text fill="#000000" font-family="sans-serif" font-size="14" lengthAdjust="spacing" textLength="152" x="167.5" y="490.2626">-estado: EstadoTicket</text><text fill="#000000" font-family="sans-serif" font-size="14" lengthAdjust="spacing" textLength="146" x="167.5" y="506.5595">-fechaCreacion: Date</text><line style="stroke:#181818;stroke-width:0.5;" x1="162.5" x2="343.5" y1="513.8612" y2="513.8612"/><text fill="#000000" font-family="sans-serif" font-size="14" lengthAdjust="spacing" textLength="109" x="167.5" y="530.8564">+asignar(): void</text><text fill="#000000" font-family="sans-serif" font-size="14" lengthAdjust="spacing" textLength="99" x="167.5" y="547.1532">+cerrar(): void</text><text fill="#000000" font-family="sans-serif" font-size="14" lengthAdjust="spacing" textLength="171" x="167.5" y="563.4501">+consultarEstado(): void</text></g><!--class EncuestaSatisfaccion--><g id="elem_EncuestaSatisfaccion"><rect codeLine="58" fill="#F1F1F1" height="129.4844" id="EncuestaSatisfaccion" rx="2.5" ry="2.5" style="stroke:#181818;stroke-width:0.5;" width="179" x="379.5" y="416.8169"/><ellipse cx="394.5" cy="432.8169" fill="#ADD1B2" rx="11" ry="11" style="stroke:#181818;stroke-width:1.0;"/><path d="M397.4688,438.4575 Q396.8906,438.7544 396.25,438.895 Q395.6094,439.0513 394.9063,439.0513 Q392.4063,439.0513 391.0781,437.4106 Q389.7656,435.7544 389.7656,432.6294 Q389.7656,429.5044 391.0781,427.8481 Q392.4063,426.1919 394.9063,426.1919 Q395.6094,426.1919 396.25,426.3481 Q396.9063,426.5044 397.4688,426.8013 L397.4688,429.52 Q396.8438,428.9419 396.25,428.6763 Q395.6563,428.395 395.0313,428.395 Q393.6875,428.395 393,429.4731 Q392.3125,430.5356 392.3125,432.6294 Q392.3125,434.7231 393,435.8013 Q393.6875,436.8638 395.0313,436.8638 Q395.6563,436.8638 396.25,436.5981 Q396.8438,436.3169 397.4688,435.7388 L397.4688,438.4575 Z " fill="#000000"/><text fill="#000000" font-family="sans-serif" font-size="14" lengthAdjust="spacing" textLength="147" x="408.5" y="437.6636">EncuestaSatisfaccion</text><line style="stroke:#181818;stroke-width:0.5;" x1="380.5" x2="557.5" y1="448.8169" y2="448.8169"/><text fill="#000000" font-family="sans-serif" font-size="14" lengthAdjust="spacing" textLength="43" x="385.5" y="465.812">-id: int</text><text fill="#000000" font-family="sans-serif" font-size="14" lengthAdjust="spacing" textLength="109" x="385.5" y="482.1089">-puntuacion: int</text><text fill="#000000" font-family="sans-serif" font-size="14" lengthAdjust="spacing" textLength="140" x="385.5" y="498.4057">-comentarios: String</text><text fill="#000000" font-family="sans-serif" font-size="14" lengthAdjust="spacing" textLength="85" x="385.5" y="514.7026">-fecha: Date</text><line style="stroke:#181818;stroke-width:0.5;" x1="380.5" x2="557.5" y1="522.0044" y2="522.0044"/><text fill="#000000" font-family="sans-serif" font-size="14" lengthAdjust="spacing" textLength="131" x="385.5" y="538.9995">+responder(): void</text></g><!--class Referido--><g id="elem_Referido"><rect codeLine="67" fill="#F1F1F1" height="162.0781" id="Referido" rx="2.5" ry="2.5" style="stroke:#181818;stroke-width:0.5;" width="206" x="593" y="400.5269"/><ellipse cx="662.75" cy="416.5269" fill="#ADD1B2" rx="11" ry="11" style="stroke:#181818;stroke-width:1.0;"/><path d="M665.7188,422.1675 Q665.1406,422.4644 664.5,422.605 Q663.8594,422.7612 663.1563,422.7612 Q660.6563,422.7612 659.3281,421.1206 Q658.0156,419.4644 658.0156,416.3394 Q658.0156,413.2144 659.3281,411.5581 Q660.6563,409.9019 663.1563,409.9019 Q663.8594,409.9019 664.5,410.0581 Q665.1563,410.2144 665.7188,410.5112 L665.7188,413.23 Q665.0938,412.6519 664.5,412.3862 Q663.9063,412.105 663.2813,412.105 Q661.9375,412.105 661.25,413.1831 Q660.5625,414.2456 660.5625,416.3394 Q660.5625,418.4331 661.25,419.5112 Q661.9375,420.5737 663.2813,420.5737 Q663.9063,420.5737 664.5,420.3081 Q665.0938,420.0269 665.7188,419.4487 L665.7188,422.1675 Z " fill="#000000"/><text fill="#000000" font-family="sans-serif" font-size="14" lengthAdjust="spacing" textLength="58" x="683.25" y="421.3736">Referido</text><line style="stroke:#181818;stroke-width:0.5;" x1="594" x2="798" y1="432.5269" y2="432.5269"/><text fill="#000000" font-family="sans-serif" font-size="14" lengthAdjust="spacing" textLength="43" x="599" y="449.522">-id: int</text><text fill="#000000" font-family="sans-serif" font-size="14" lengthAdjust="spacing" textLength="151" x="599" y="465.8189">-datosReferido: String</text><text fill="#000000" font-family="sans-serif" font-size="14" lengthAdjust="spacing" textLength="143" x="599" y="482.1157">-fechaRegistro: Date</text><text fill="#000000" font-family="sans-serif" font-size="14" lengthAdjust="spacing" textLength="194" x="599" y="498.4126">-beneficioGenerado: double</text><text fill="#000000" font-family="sans-serif" font-size="14" lengthAdjust="spacing" textLength="102" x="599" y="514.7095">-estado: String</text><line style="stroke:#181818;stroke-width:0.5;" x1="594" x2="798" y1="522.0113" y2="522.0113"/><text fill="#000000" font-family="sans-serif" font-size="14" lengthAdjust="spacing" textLength="116" x="599" y="539.0064">+registrar(): void</text><text fill="#000000" font-family="sans-serif" font-size="14" lengthAdjust="spacing" textLength="177" x="599" y="555.3032">+generarBeneficio(): void</text></g><!--class Oferta--><g id="elem_Oferta"><rect codeLine="78" fill="#F1F1F1" height="162.0781" id="Oferta" rx="2.5" ry="2.5" style="stroke:#181818;stroke-width:0.5;" width="149" x="833.5" y="400.5269"/><ellipse cx="882.75" cy="416.5269" fill="#ADD1B2" rx="11" ry="11" style="stroke:#181818;stroke-width:1.0;"/><path d="M885.7188,422.1675 Q885.1406,422.4644 884.5,422.605 Q883.8594,422.7612 883.1563,422.7612 Q880.6563,422.7612 879.3281,421.1206 Q878.0156,419.4644 878.0156,416.3394 Q878.0156,413.2144 879.3281,411.5581 Q880.6563,409.9019 883.1563,409.9019 Q883.8594,409.9019 884.5,410.0581 Q885.1563,410.2144 885.7188,410.5112 L885.7188,413.23 Q885.0938,412.6519 884.5,412.3862 Q883.9063,412.105 883.2813,412.105 Q881.9375,412.105 881.25,413.1831 Q880.5625,414.2456 880.5625,416.3394 Q880.5625,418.4331 881.25,419.5112 Q881.9375,420.5737 883.2813,420.5737 Q883.9063,420.5737 884.5,420.3081 Q885.0938,420.0269 885.7188,419.4487 L885.7188,422.1675 Z " fill="#000000"/><text fill="#000000" font-family="sans-serif" font-size="14" lengthAdjust="spacing" textLength="42" x="903.25" y="421.3736">Oferta</text><line style="stroke:#181818;stroke-width:0.5;" x1="834.5" x2="981.5" y1="432.5269" y2="432.5269"/><text fill="#000000" font-family="sans-serif" font-size="14" lengthAdjust="spacing" textLength="43" x="839.5" y="449.522">-id: int</text><text fill="#000000" font-family="sans-serif" font-size="14" lengthAdjust="spacing" textLength="134" x="839.5" y="465.8189">-descripcion: String</text><text fill="#000000" font-family="sans-serif" font-size="14" lengthAdjust="spacing" textLength="120" x="839.5" y="482.1157">-fechaInicio: Date</text><text fill="#000000" font-family="sans-serif" font-size="14" lengthAdjust="spacing" textLength="105" x="839.5" y="498.4126">-fechaFin: Date</text><text fill="#000000" font-family="sans-serif" font-size="14" lengthAdjust="spacing" textLength="137" x="839.5" y="514.7095">-descuento: double</text><line style="stroke:#181818;stroke-width:0.5;" x1="834.5" x2="981.5" y1="522.0113" y2="522.0113"/><text fill="#000000" font-family="sans-serif" font-size="14" lengthAdjust="spacing" textLength="113" x="839.5" y="539.0064">+generar(): void</text><text fill="#000000" font-family="sans-serif" font-size="14" lengthAdjust="spacing" textLength="100" x="839.5" y="555.3032">+enviar(): void</text></g><!--class Compra--><g id="elem_Compra"><rect codeLine="89" fill="#F1F1F1" height="129.4844" id="Compra" rx="2.5" ry="2.5" style="stroke:#181818;stroke-width:0.5;" width="128" x="1017" y="416.8169"/><ellipse cx="1050.9" cy="432.8169" fill="#ADD1B2" rx="11" ry="11" style="stroke:#181818;stroke-width:1.0;"/><path d="M1053.8688,438.4575 Q1053.2906,438.7544 1052.65,438.895 Q1052.0094,439.0513 1051.3063,439.0513 Q1048.8063,439.0513 1047.4781,437.4106 Q1046.1656,435.7544 1046.1656,432.6294 Q1046.1656,429.5044 1047.4781,427.8481 Q1048.8063,426.1919 1051.3063,426.1919 Q1052.0094,426.1919 1052.65,426.3481 Q1053.3063,426.5044 1053.8688,426.8013 L1053.8688,429.52 Q1053.2438,428.9419 1052.65,428.6763 Q1052.0563,428.395 1051.4313,428.395 Q1050.0875,428.395 1049.4,429.4731 Q1048.7125,430.5356 1048.7125,432.6294 Q1048.7125,434.7231 1049.4,435.8013 Q1050.0875,436.8638 1051.4313,436.8638 Q1052.0563,436.8638 1052.65,436.5981 Q1053.2438,436.3169 1053.8688,435.7388 L1053.8688,438.4575 Z " fill="#000000"/><text fill="#000000" font-family="sans-serif" font-size="14" lengthAdjust="spacing" textLength="54" x="1069.1" y="437.6636">Compra</text><line style="stroke:#181818;stroke-width:0.5;" x1="1018" x2="1144" y1="448.8169" y2="448.8169"/><text fill="#000000" font-family="sans-serif" font-size="14" lengthAdjust="spacing" textLength="43" x="1023" y="465.812">-id: int</text><text fill="#000000" font-family="sans-serif" font-size="14" lengthAdjust="spacing" textLength="85" x="1023" y="482.1089">-fecha: Date</text><text fill="#000000" font-family="sans-serif" font-size="14" lengthAdjust="spacing" textLength="107" x="1023" y="498.4057">-monto: double</text><text fill="#000000" font-family="sans-serif" font-size="14" lengthAdjust="spacing" textLength="102" x="1023" y="514.7026">-estado: String</text><line style="stroke:#181818;stroke-width:0.5;" x1="1018" x2="1144" y1="522.0044" y2="522.0044"/><text fill="#000000" font-family="sans-serif" font-size="14" lengthAdjust="spacing" textLength="116" x="1023" y="538.9995">+registrar(): void</text></g><!--class Notificacion--><g id="elem_Notificacion"><rect codeLine="98" fill="#F1F1F1" height="113.1875" id="Notificacion" rx="2.5" ry="2.5" style="stroke:#181818;stroke-width:0.5;" width="112" x="1180" y="424.9669"/><ellipse cx="1195.45" cy="440.9669" fill="#ADD1B2" rx="11" ry="11" style="stroke:#181818;stroke-width:1.0;"/><path d="M1198.4188,446.6075 Q1197.8406,446.9044 1197.2,447.045 Q1196.5594,447.2012 1195.8563,447.2012 Q1193.3563,447.2012 1192.0281,445.5606 Q1190.7156,443.9044 1190.7156,440.7794 Q1190.7156,437.6544 1192.0281,435.9981 Q1193.3563,434.3419 1195.8563,434.3419 Q1196.5594,434.3419 1197.2,434.4981 Q1197.8563,434.6544 1198.4188,434.9512 L1198.4188,437.67 Q1197.7938,437.0919 1197.2,436.8262 Q1196.6063,436.545 1195.9813,436.545 Q1194.6375,436.545 1193.95,437.6231 Q1193.2625,438.6856 1193.2625,440.7794 Q1193.2625,442.8731 1193.95,443.9512 Q1194.6375,445.0137 1195.9813,445.0137 Q1196.6063,445.0137 1197.2,444.7481 Q1197.7938,444.4669 1198.4188,443.8887 L1198.4188,446.6075 Z " fill="#000000"/><text fill="#000000" font-family="sans-serif" font-size="14" lengthAdjust="spacing" textLength="79" x="1209.55" y="445.8136">Notificacion</text><line style="stroke:#181818;stroke-width:0.5;" x1="1181" x2="1291" y1="456.9669" y2="456.9669"/><text fill="#000000" font-family="sans-serif" font-size="14" lengthAdjust="spacing" textLength="43" x="1186" y="473.962">-id: int</text><text fill="#000000" font-family="sans-serif" font-size="14" lengthAdjust="spacing" textLength="80" x="1186" y="490.2589">-tipo: String</text><text fill="#000000" font-family="sans-serif" font-size="14" lengthAdjust="spacing" textLength="90" x="1186" y="506.5557">-canal: String</text><line style="stroke:#181818;stroke-width:0.5;" x1="1181" x2="1291" y1="513.8575" y2="513.8575"/><text fill="#000000" font-family="sans-serif" font-size="14" lengthAdjust="spacing" textLength="100" x="1186" y="530.8526">+enviar(): void</text></g><!--class EstadoTicket--><g id="elem_EstadoTicket"><rect codeLine="124" fill="#F1F1F1" height="113.1875" id="EstadoTicket" rx="2.5" ry="2.5" style="stroke:#181818;stroke-width:0.5;" width="122" x="681" y="44.2969"/><ellipse cx="696" cy="60.2969" fill="#EB937F" rx="11" ry="11" style="stroke:#181818;stroke-width:1.0;"/><path d="M700.1094,66.2969 L692.3906,66.2969 L692.3906,53.9063 L700.1094,53.9063 L700.1094,56.0625 L694.8438,56.0625 L694.8438,58.7344 L699.6094,58.7344 L699.6094,60.8906 L694.8438,60.8906 L694.8438,64.1406 L700.1094,64.1406 L700.1094,66.2969 Z " fill="#000000"/><text fill="#000000" font-family="sans-serif" font-size="14" lengthAdjust="spacing" textLength="90" x="710" y="65.1436">EstadoTicket</text><line style="stroke:#181818;stroke-width:0.5;" x1="682" x2="802" y1="76.2969" y2="76.2969"/><text fill="#000000" font-family="sans-serif" font-size="14" lengthAdjust="spacing" textLength="61" x="687" y="93.292">ABIERTO</text><text fill="#000000" font-family="sans-serif" font-size="14" lengthAdjust="spacing" textLength="95" x="687" y="109.5889">EN_PROCESO</text><text fill="#000000" font-family="sans-serif" font-size="14" lengthAdjust="spacing" textLength="74" x="687" y="125.8857">RESUELTO</text><text fill="#000000" font-family="sans-serif" font-size="14" lengthAdjust="spacing" textLength="70" x="687" y="142.1826">CERRADO</text><line style="stroke:#181818;stroke-width:0.5;" x1="682" x2="802" y1="149.4844" y2="149.4844"/></g><!--class EstadoCliente--><g id="elem_EstadoCliente"><rect codeLine="131" fill="#F1F1F1" height="80.5938" id="EstadoCliente" rx="2.5" ry="2.5" style="stroke:#181818;stroke-width:0.5;" width="128" x="838" y="60.5969"/><ellipse cx="853" cy="76.5969" fill="#EB937F" rx="11" ry="11" style="stroke:#181818;stroke-width:1.0;"/><path d="M857.1094,82.5969 L849.3906,82.5969 L849.3906,70.2062 L857.1094,70.2062 L857.1094,72.3625 L851.8438,72.3625 L851.8438,75.0344 L856.6094,75.0344 L856.6094,77.1906 L851.8438,77.1906 L851.8438,80.4406 L857.1094,80.4406 L857.1094,82.5969 Z " fill="#000000"/><text fill="#000000" font-family="sans-serif" font-size="14" lengthAdjust="spacing" textLength="96" x="867" y="81.4436">EstadoCliente</text><line style="stroke:#181818;stroke-width:0.5;" x1="839" x2="965" y1="92.5969" y2="92.5969"/><text fill="#000000" font-family="sans-serif" font-size="14" lengthAdjust="spacing" textLength="51" x="844" y="109.592">ACTIVO</text><text fill="#000000" font-family="sans-serif" font-size="14" lengthAdjust="spacing" textLength="82" x="844" y="125.8889">FIDELIZADO</text><line style="stroke:#181818;stroke-width:0.5;" x1="839" x2="965" y1="133.1906" y2="133.1906"/></g><!--reverse link Persona to Cliente--><g id="link_Persona_Cliente"><path codeLine="106" d="M661.2504,159.5294 C690.0704,181.3094 709.93,196.3269 738.89,218.2269 " fill="none" id="Persona-backto-Cliente" style="stroke:#181818;stroke-width:1.0;"/><polygon fill="none" points="646.89,148.6769,657.6329,164.3162,664.868,154.7426,646.89,148.6769" style="stroke:#181818;stroke-width:1.0;"/></g><!--reverse link Persona to AsesorComercial--><g id="link_Persona_AsesorComercial"><path codeLine="107" d="M544.2874,164.893 C528.5774,189.193 519.5,203.2469 504.62,226.2769 " fill="none" id="Persona-backto-AsesorComercial" style="stroke:#181818;stroke-width:1.0;"/><polygon fill="none" points="554.06,149.7769,539.2487,161.6354,549.3261,168.1505,554.06,149.7769" style="stroke:#181818;stroke-width:1.0;"/></g><!--link Cliente to Entrega--><g id="link_Cliente_Entrega"><path codeLine="109" d="M896.53,270.8869 C1005.35,278.5769 1185.09,304.8069 1310,392.3769 C1325.11,402.9669 1338.32,418.0169 1348.91,432.6969 " fill="none" id="Cliente-Entrega" style="stroke:#181818;stroke-width:1.0;"/><text fill="#000000" font-family="sans-serif" font-size="13" lengthAdjust="spacing" textLength="39" x="1250.52" y="358.4438">recibe</text><text fill="#000000" font-family="sans-serif" font-size="13" lengthAdjust="spacing" textLength="8" x="904.3816" y="267.6765">1</text><text fill="#000000" font-family="sans-serif" font-size="13" lengthAdjust="spacing" textLength="23" x="1320.5901" y="422.1986">0..*</text></g><!--link Entrega to Garantia--><g id="link_Entrega_Garantia"><path codeLine="110" d="M1351.21,530.1469 C1340.5,545.5369 1326.63,561.1069 1310,570.7469 C1122.78,679.3069 460.94,714.7669 207.11,724.5369 " fill="none" id="Entrega-Garantia" style="stroke:#181818;stroke-width:1.0;"/><text fill="#000000" font-family="sans-serif" font-size="13" lengthAdjust="spacing" textLength="38" x="1241.76" y="613.8138">activa</text><text fill="#000000" font-family="sans-serif" font-size="13" lengthAdjust="spacing" textLength="8" x="1339.0208" y="550.11">1</text><text fill="#000000" font-family="sans-serif" font-size="13" lengthAdjust="spacing" textLength="24" x="214.9927" y="720.7823">0..1</text></g><!--link Producto to Garantia--><g id="link_Producto_Garantia"><path codeLine="111" d="M74.81,530.4269 C80.24,563.7369 87.62,608.9569 93.94,647.7069 " fill="none" id="Producto-Garantia" style="stroke:#181818;stroke-width:1.0;"/><text fill="#000000" font-family="sans-serif" font-size="13" lengthAdjust="spacing" textLength="39" x="89.2" y="613.8138">posee</text><text fill="#000000" font-family="sans-serif" font-size="13" lengthAdjust="spacing" textLength="8" x="67.322" y="550.0767">1</text><text fill="#000000" font-family="sans-serif" font-size="13" lengthAdjust="spacing" textLength="23" x="68.6759" y="636.614">0..*</text></g><!--link Cliente to TicketSoporte--><g id="link_Cliente_TicketSoporte"><path codeLine="113" d="M707.17,289.9969 C596.8,316.5169 422,361.2969 362,392.3769 C356.27,395.3369 350.56,398.6369 344.93,402.1669 " fill="none" id="Cliente-TicketSoporte" style="stroke:#181818;stroke-width:1.0;"/><text fill="#000000" font-family="sans-serif" font-size="13" lengthAdjust="spacing" textLength="47" x="486.46" y="358.4438">reporta</text><text fill="#000000" font-family="sans-serif" font-size="13" lengthAdjust="spacing" textLength="8" x="691.6033" y="288.2605">1</text><text fill="#000000" font-family="sans-serif" font-size="13" lengthAdjust="spacing" textLength="23" x="352.5256" y="392.8571">0..*</text></g><!--link AsesorComercial to TicketSoporte--><g id="link_AsesorComercial_TicketSoporte"><path codeLine="114" d="M395.14,280.5869 C353.97,291.1169 307.08,310.3469 278,345.3769 C267.02,358.5969 260.24,375.0769 256.17,391.9269 " fill="none" id="AsesorComercial-TicketSoporte" style="stroke:#181818;stroke-width:1.0;"/><text fill="#000000" font-family="sans-serif" font-size="13" lengthAdjust="spacing" textLength="48" x="279" y="358.4438">atiende</text><text fill="#000000" font-family="sans-serif" font-size="13" lengthAdjust="spacing" textLength="8" x="379.5895" y="278.1891">1</text><text fill="#000000" font-family="sans-serif" font-size="13" lengthAdjust="spacing" textLength="23" x="232.5062" y="381.2584">0..*</text></g><!--link Cliente to EncuestaSatisfaccion--><g id="link_Cliente_EncuestaSatisfaccion"><path codeLine="116" d="M707.05,315.1569 C665.74,336.9769 617.42,364.2669 576,392.3769 C565.14,399.7369 554.06,407.9669 543.34,416.3569 " fill="none" id="Cliente-EncuestaSatisfaccion" style="stroke:#181818;stroke-width:1.0;"/><text fill="#000000" font-family="sans-serif" font-size="13" lengthAdjust="spacing" textLength="60" x="649.26" y="358.4438">responde</text><text fill="#000000" font-family="sans-serif" font-size="13" lengthAdjust="spacing" textLength="8" x="691.4741" y="315.3468">1</text><text fill="#000000" font-family="sans-serif" font-size="13" lengthAdjust="spacing" textLength="23" x="526.8204" y="405.9332">0..*</text></g><!--link Cliente to Referido--><g id="link_Cliente_Referido"><path codeLine="117" d="M778.21,315.6469 C765.82,340.5069 750.33,371.5769 736.15,400.0269 " fill="none" id="Cliente-Referido" style="stroke:#181818;stroke-width:1.0;"/><text fill="#000000" font-family="sans-serif" font-size="13" lengthAdjust="spacing" textLength="76" x="762.61" y="358.4438">recomienda</text><text fill="#000000" font-family="sans-serif" font-size="13" lengthAdjust="spacing" textLength="8" x="766.4757" y="335.2765">1</text><text fill="#000000" font-family="sans-serif" font-size="13" lengthAdjust="spacing" textLength="23" x="715.6121" y="389.4477">0..*</text></g><!--link Cliente to Oferta--><g id="link_Cliente_Oferta"><path codeLine="119" d="M831.61,315.7669 C837.26,325.4469 842.98,335.6469 848,345.3769 C857.02,362.8269 866,381.9169 874.17,400.1169 " fill="none" id="Cliente-Oferta" style="stroke:#181818;stroke-width:1.0;"/><text fill="#000000" font-family="sans-serif" font-size="13" lengthAdjust="spacing" textLength="39" x="856.22" y="358.4438">recibe</text><text fill="#000000" font-family="sans-serif" font-size="13" lengthAdjust="spacing" textLength="8" x="827.0513" y="335.4127">1</text><text fill="#000000" font-family="sans-serif" font-size="13" lengthAdjust="spacing" textLength="23" x="847.2745" y="389.5454">0..*</text></g><!--link Cliente to Compra--><g id="link_Cliente_Compra"><path codeLine="120" d="M888.75,315.5969 C924.68,337.0369 965.84,363.9169 1000,392.3769 C1008.79,399.6869 1017.53,407.9369 1025.86,416.3669 " fill="none" id="Cliente-Compra" style="stroke:#181818;stroke-width:1.0;"/><text fill="#000000" font-family="sans-serif" font-size="13" lengthAdjust="spacing" textLength="42" x="960.37" y="358.4438">realiza</text><text fill="#000000" font-family="sans-serif" font-size="13" lengthAdjust="spacing" textLength="8" x="892.3867" y="335.5713">1</text><text fill="#000000" font-family="sans-serif" font-size="13" lengthAdjust="spacing" textLength="23" x="995.9878" y="405.9442">0..*</text></g><!--link Cliente to Notificacion--><g id="link_Cliente_Notificacion"><path codeLine="122" d="M896.69,285.6869 C973.55,303.4269 1082.07,336.3269 1163,392.3769 C1175.75,401.1969 1187.5,412.8369 1197.69,424.7469 " fill="none" id="Cliente-Notificacion" style="stroke:#181818;stroke-width:1.0;"/><text fill="#000000" font-family="sans-serif" font-size="13" lengthAdjust="spacing" textLength="39" x="1110.76" y="358.4438">recibe</text><text fill="#000000" font-family="sans-serif" font-size="13" lengthAdjust="spacing" textLength="8" x="904.5544" y="283.6559">1</text><text fill="#000000" font-family="sans-serif" font-size="13" lengthAdjust="spacing" textLength="23" x="1168.6194" y="413.9836">0..*</text></g><!--SRC=[dLNDRjim3BxxAOISzeCKtM6NO9SqSRi0HHCuNG-z3BJCP4HjoP3a0EksfzeZxCL6-I-n7HVhSebCKH_9JnyfHov5iJ5QejNYevYAZRRkWCg1-2wkAS6Kda7Idzygi4-aSZ2G2Pc2jNFd3CM5mvNKQalFA2w306Bh34XNkOWD6giLY1-1uDzKA9t51cTYoqVLlZPARGpgdj5XYZkjZkPVGL1XBbBYzB35f6GcIBdw2ws3X4-5vN_j6vIRxpcIiaNgm7mcwxGXID-ydOc3fkG8FxVCX5de38raXq6O6WeSgWJDFSadT4CKPZGffDCZMMQQYUsNd86HCAmtLCxW7aQGTYY_yQ4bvrDRqc8FPWXpmpUd7Bs8ir8aINVGIlirgOwHUKoyfqBRgw6XlpRMP77-v7LXMg8g-m5IIi0yq1uLa-rtOwrJ17NCks9ugtDjHYyTRA5Sdyu4hJIK-pH7agmqKWKuBNTX4AfZPStDZLlQgq494ismhbPdLOIXF48b2v_55XpP7KWVRQIsd4ihwdIELidwv1urfFitS2g8bdwRQw_MOI8Hxj1GCgRJ19osZS-vG55rirtDnAXmv_LnmmjJKfte8axnlqIoBq7CLGCwB6BD-RanOO_Bu5MIzp05bYghQ-ccrqiQrO7W3DyyLtBpxxsSwTE8hsElZNcd7J5py8B87ENzwvMW8Er76PRLJFXFFwVJPZHtZRs16WJD09zyc0ZUdrnUNBoRj6DkngL8YZ5e32Tkl6h7s4pmCqC72DfHsyKxSSorHHoBsvqlFhfVGT1_1ru-nNtituFnuixq-wnjp95JRNEMdEZCXu2n47KJjFITzwhrvxt0l-nZQ1tDj9W1gYBhZCrQJ_EhLHZThyjrUFTr4wqNuRRwZCBjb_2stbk4KJHVhhrmJg2wB_fySRzwgDolLylmTlLOdlWB]--></g></svg>